<svg class="icon" viewBox="0 0 1024 1024" version="1.1" xmlns="http://www.w3.org/2000/svg" width="48" height="48">
    <path d="M738.8 25.7c53.6 0 97.5 41.1 97.5 91.4v792.2c0 50.3-43.9 91.4-97.5 91.4h-455c-53.6 0-97.5-41.1-97.5-91.4V117.1c0-50.3 43.9-91.4 97.5-91.4h455zM419.4 66.3c-9.1 0-16.5 9.1-16.5 20.3s7.4 20.3 16.5 20.3h183.8c9.1 0 16.5-9.1 16.5-20.3s-7.4-20.3-16.5-20.3H419.4z m91.9 893.8c35.9 0 65-27.3 65-60.9 0-33.7-29.1-60.9-65-60.9s-65 27.3-65 60.9c0 33.6 29.1 60.9 65 60.9zM270.3 757h487.5V147.6H270.3V757z m0 0"
          fill="#838383"></path>
</svg>