<?xml version="1.0" standalone="no"?><!DOCTYPE svg PUBLIC "-//W3C//DTD SVG 1.1//EN"
        "http://www.w3.org/Graphics/SVG/1.1/DTD/svg11.dtd">
<svg t="1705844757941" class="icon" viewBox="0 0 1024 1024" version="1.1" xmlns="http://www.w3.org/2000/svg" p-id="4336"
     xmlns:xlink="http://www.w3.org/1999/xlink" width="200" height="200">
    <path d="M508.8 935.7c-14.1 0-29.2-8-43.7-23.4C32.6 649.6 54 381.3 71 305.1 97.2 186.9 187.6 102.8 301.2 90.8c109.1-11.6 173.2 18.4 210.9 54.5 37.6-36.3 102.1-66 210.8-54.5 113.6 12 204 96.1 230.2 214.3 17 76.2 38.3 344.5-394.1 607.2-15.5 16.5-32.1 24.1-46.9 23.2-1.1 0.1-2.2 0.2-3.3 0.2z m-0.1-61.3c-3.5 0-7.7 0.7-12 3.2h30.6c-4.7-2.7-9.4-3.2-13.2-3.2 0.8 0.7 1.5 1.2 2 1.5-0.9-0.5-2.3-1-4.2-1.3-1.9 0.3-3.4 0.7-4.3 1.3 0.5-0.3 1.2-0.8 2.1-1.5h-1z m-161-725c-12.6 0-26 0.7-40.1 2.2-87 9.3-156.4 74.7-176.9 166.7-14.7 66.4-31.6 301.5 370 543.9l7.3 6.1c1.2 1.3 2.6 2.8 4.1 4.1 1.4-1.3 2.8-2.8 4-4.1l7.3-6.1c401.6-242.4 384.7-477.5 370-543.9-20.5-92-89.9-157.4-176.9-166.7-87.2-9.3-147.3 10.3-178.8 58.1h-51.1c-26.6-40-73.1-60.3-138.9-60.3z"
          fill="#5C5C5C" p-id="4337"></path>
</svg>